<svg width="24" height="24" viewBox="0 0 24 24" fill="none" xmlns="http://www.w3.org/2000/svg">
<path d="M12.396 4C7.67358 4 3.85418 7.81212 3.85418 12.5H1L4.70524 16.1782L4.74676 16.3121L8.58692 12.5H5.7535C5.7535 8.85273 8.73223 5.88545 12.4167 5.88545C16.0908 5.88545 19.0592 8.85273 19.0592 12.5C19.0592 16.1473 16.0908 19.1145 12.4167 19.1145C10.5693 19.1145 8.90867 18.3624 7.70472 17.157L6.35547 18.4964C7.9123 20.0418 10.04 21 12.4063 21C17.1598 21 21 17.1879 21 12.5C21 7.80182 17.1598 4 12.4271 4H12.396ZM11.4619 8.71879V13.4582L15.5304 15.8279L16.2154 14.6945L12.8941 12.737V8.71879H11.4619Z" fill="#E7E7E7"/>
</svg>
