<svg width="20" height="17" viewBox="0 0 20 17" fill="none" xmlns="http://www.w3.org/2000/svg">
<path d="M11.396 0C6.67358 0 2.85418 3.81212 2.85418 8.5H0L3.70524 12.1782L3.74676 12.3121L7.58692 8.5H4.7535C4.7535 4.85273 7.73223 1.88545 11.4167 1.88545C15.0908 1.88545 18.0592 4.85273 18.0592 8.5C18.0592 12.1473 15.0908 15.1145 11.4167 15.1145C9.56928 15.1145 7.90867 14.3624 6.70472 13.157L5.35547 14.4964C6.9123 16.0418 9.03996 17 11.4063 17C16.1598 17 20 13.1879 20 8.5C20 3.80182 16.1598 0 11.4271 0H11.396ZM10.4619 4.71879V9.45818L14.5304 11.8279L15.2154 10.6945L11.8941 8.73697V4.71879H10.4619Z" fill="#606060"/>
</svg>
