<svg width="23" height="24" viewBox="0 0 24 24" fill="none" xmlns="http://www.w3.org/2000/svg">
<path d="M19.43 12.98C19.47 12.66 19.5 12.34 19.5 12C19.5 11.66 19.47 11.34 19.43 11.02L21.53 9.37C21.73 9.22 21.78 8.95 21.66 8.73L19.66 5.27C19.54 5.05 19.26 4.97 19.06 5.05L16.56 6.05C16.04 5.65 15.48 5.32 14.86 5.07L14.49 2.42C14.43 2.18 14.22 2 13.99 2H9.99002C9.72002 2 9.51002 2.18 9.49002 2.42L9.09002 5.07C8.49002 5.32 7.92002 5.67 7.39002 6.05L4.91002 5.05C4.68002 4.95 4.41002 5.05 4.31002 5.27L2.31002 8.73C2.17002 8.95 2.23002 9.23 2.41002 9.37L4.53002 11.02C4.49002 11.34 4.46002 11.67 4.46002 12C4.46002 12.33 4.48002 12.66 4.52002 12.98L2.42002 14.63C2.22002 14.78 2.17002 15.05 2.29002 15.27L4.29002 18.73C4.41002 18.95 4.69002 19.03 4.89002 18.95L7.39002 17.95C7.91002 18.35 8.47002 18.68 9.09002 18.93L9.46002 21.58C9.50002 21.82 9.71002 22 9.96002 22H13.96C14.21 22 14.42 21.82 14.46 21.58L14.83 18.93C15.43 18.68 16 18.33 16.53 17.95L19.01 18.95C19.24 19.05 19.51 18.95 19.61 18.73L21.61 15.27C21.74 15.05 21.69 14.77 21.51 14.63L19.39 12.98H19.43ZM12 15.5C10.07 15.5 8.50002 13.93 8.50002 12C8.50002 10.07 10.07 8.5 12 8.5C13.93 8.5 15.5 10.07 15.5 12C15.5 13.93 13.93 15.5 12 15.5Z" fill="#E7E7E7"/>
</svg>
