<svg width="14" height="18" viewBox="0 0 14 18" fill="none" xmlns="http://www.w3.org/2000/svg">
<path d="M12.5298 8.2C12.2998 7.9 12.0298 7.64 11.7698 7.38C11.1198 6.78 10.3698 6.35 9.73985 5.72C8.27985 4.26 7.95985 1.85 8.88985 0C7.98985 0.23 7.13984 0.75 6.43985 1.32C3.89985 3.4 2.89985 7.07 4.09985 10.22C4.13985 10.32 4.17985 10.42 4.17985 10.55C4.17985 10.77 4.02985 10.97 3.82985 11.05C3.60985 11.15 3.36985 11.09 3.18985 10.93C3.12985 10.88 3.08985 10.83 3.03985 10.76C1.93985 9.33 1.75985 7.28 2.50985 5.64C0.869846 7 -0.000154719 9.3 0.119845 11.47C0.159845 11.97 0.219845 12.47 0.389845 12.97C0.529845 13.57 0.789846 14.17 1.10985 14.7C2.14985 16.43 3.97985 17.67 5.94985 17.92C8.04985 18.19 10.2998 17.8 11.9098 16.32C13.7098 14.66 14.3598 12.02 13.4098 9.72L13.2798 9.46C13.0798 9.01 12.8098 8.59 12.4998 8.21L12.5298 8.2ZM9.42985 14.5C9.14985 14.74 8.69985 15 8.34985 15.1C7.24985 15.48 6.14985 14.94 5.46985 14.28C6.66985 14 7.36985 13.12 7.56985 12.23C7.73985 11.43 7.42985 10.77 7.29985 10C7.17985 9.26 7.19985 8.63 7.49985 7.94C7.64985 8.32 7.84985 8.7 8.07985 9C8.83985 10 10.0298 10.44 10.2798 11.8C10.3198 11.94 10.3398 12.08 10.3398 12.23C10.3698 13.05 10.0198 13.95 9.41985 14.49L9.42985 14.5Z" fill="#606060"/>
</svg>
