<svg width="22" height="18" viewBox="0 0 18 18" fill="none" xmlns="http://www.w3.org/2000/svg">
<path d="M15.4001 2.5999V15.3999H2.60014V2.5999H15.4001ZM15.4001 0.799899H2.60014C2.12275 0.799899 1.66492 0.989541 1.32735 1.32711C0.989786 1.66467 0.800143 2.12251 0.800143 2.5999V15.3999C0.78653 15.6446 0.823013 15.8894 0.907356 16.1195C0.991699 16.3495 1.12213 16.56 1.29065 16.7378C1.45917 16.9157 1.66224 17.0573 1.88741 17.154C2.11258 17.2506 2.35511 17.3003 2.60014 17.2999H15.4001C15.6535 17.3144 15.907 17.2752 16.1441 17.1849C16.3812 17.0945 16.5965 16.955 16.7759 16.7756C16.9553 16.5962 17.0947 16.3809 17.1851 16.1438C17.2754 15.9067 17.3147 15.6532 17.3001 15.3999V2.5999C17.3005 2.35486 17.2509 2.11233 17.1542 1.88716C17.0576 1.66199 16.916 1.45893 16.7381 1.2904C16.5602 1.12188 16.3498 0.991455 16.1197 0.907112C15.8897 0.822769 15.6448 0.786286 15.4001 0.799899Z" fill="#E7E7E7"/>
<path d="M7.2002 6V12.5L12.2002 9.3L7.2002 6.1V6Z" fill="#E7E7E7"/>
</svg>
