<svg width="22" height="29" viewBox="0 0 25 29" fill="none" xmlns="http://www.w3.org/2000/svg">
<g filter="url(#filter0_d_255_196)">
<path d="M19.4001 5.5999V18.3999H6.60014V5.5999H19.4001ZM19.4001 3.7999H6.60014C6.12275 3.7999 5.66492 3.98954 5.32735 4.32711C4.98979 4.66467 4.80014 5.12251 4.80014 5.5999V18.3999C4.78653 18.6446 4.82301 18.8894 4.90736 19.1195C4.9917 19.3495 5.12213 19.56 5.29065 19.7378C5.45917 19.9157 5.66224 20.0573 5.88741 20.154C6.11258 20.2506 6.35511 20.3003 6.60014 20.2999H19.4001C19.6535 20.3144 19.907 20.2752 20.1441 20.1849C20.3812 20.0945 20.5965 19.955 20.7759 19.7756C20.9553 19.5962 21.0947 19.3809 21.1851 19.1438C21.2754 18.9067 21.3147 18.6532 21.3001 18.3999V5.5999C21.3005 5.35486 21.2509 5.11233 21.1542 4.88716C21.0576 4.66199 20.916 4.45893 20.7381 4.2904C20.5602 4.12188 20.3498 3.99146 20.1197 3.90711C19.8897 3.82277 19.6448 3.78629 19.4001 3.7999V3.7999Z" fill="#E7E7E7"/>
<path d="M11.2002 9V15.5L16.2002 12.3L11.2002 9.1V9Z" fill="#E7E7E7"/>
</g>
<defs>
<filter id="filter0_d_255_196" x="-3" y="0" width="32" height="32" filterUnits="userSpaceOnUse" color-interpolation-filters="sRGB">
<feFlood flood-opacity="0" result="BackgroundImageFix"/>
<feColorMatrix in="SourceAlpha" type="matrix" values="0 0 0 0 0 0 0 0 0 0 0 0 0 0 0 0 0 0 127 0" result="hardAlpha"/>
<feOffset dy="4"/>
<feGaussianBlur stdDeviation="2"/>
<feComposite in2="hardAlpha" operator="out"/>
<feColorMatrix type="matrix" values="0 0 0 0 0 0 0 0 0 0 0 0 0 0 0 0 0 0 0.25 0"/>
<feBlend mode="normal" in2="BackgroundImageFix" result="effect1_dropShadow_255_196"/>
<feBlend mode="normal" in="SourceGraphic" in2="effect1_dropShadow_255_196" result="shape"/>
</filter>
</defs>
</svg>
