<svg width="24" height="24" viewBox="0 0 24 24" fill="none" xmlns="http://www.w3.org/2000/svg">
<path d="M18.4001 5.5999V18.3999H5.60014V5.5999H18.4001ZM18.4001 3.7999H5.60014C5.12275 3.7999 4.66492 3.98954 4.32735 4.32711C3.98979 4.66467 3.80014 5.12251 3.80014 5.5999V18.3999C3.78653 18.6446 3.82301 18.8894 3.90736 19.1195C3.9917 19.3495 4.12213 19.56 4.29065 19.7378C4.45917 19.9157 4.66224 20.0573 4.88741 20.154C5.11258 20.2506 5.35511 20.3003 5.60014 20.2999H18.4001C18.6535 20.3144 18.907 20.2752 19.1441 20.1849C19.3812 20.0945 19.5965 19.955 19.7759 19.7756C19.9553 19.5962 20.0947 19.3809 20.1851 19.1438C20.2754 18.9067 20.3147 18.6532 20.3001 18.3999V5.5999C20.3005 5.35486 20.2509 5.11233 20.1542 4.88716C20.0576 4.66199 19.916 4.45893 19.7381 4.2904C19.5602 4.12188 19.3498 3.99146 19.1197 3.90711C18.8897 3.82277 18.6448 3.78629 18.4001 3.7999Z" fill="#606060"/>
<path d="M10.2002 9V15.5L15.2002 12.3L10.2002 9.1V9Z" fill="#606060"/>
</svg>
