<svg width="24" height="22" viewBox="0 0 24 24" fill="none" xmlns="http://www.w3.org/2000/svg">
<path d="M21.78 8.00007C21.78 8.00007 21.58 6.63007 20.98 6.03007C20.23 5.23007 19.38 5.23007 18.98 5.18007C16.2 4.98007 12 5.00007 12 5.00007C12 5.00007 7.82 4.98007 5.03 5.18007C4.63 5.23007 3.79 5.23007 3.03 6.03007C2.43 6.63007 2.23 8.00007 2.23 8.00007C2.23 8.00007 2.03 9.63007 2 11.2301V12.9301C2.03 14.5301 2.23 16.1301 2.23 16.1301C2.23 16.1301 2.43 17.5301 3.03 18.1301C3.79 18.9301 4.78 18.8901 5.23 18.9801C6.8 19.1301 11.83 19.1601 12 19.1601C12 19.1601 16.2 19.1601 19 18.9601C19.38 18.9201 20.23 18.9201 21 18.1201C21.6 17.5201 21.8 16.1401 21.8 16.1401C21.8 16.1401 22 14.5401 22 12.9201V11.2201C21.98 9.62007 21.78 8.00007 21.78 8.00007ZM9.98 15.0001V9.16007L15.33 12.1901L9.97 15.0001H9.98Z" fill="#E7E7E7"/>
</svg>
